<svg xmlns="http://www.w3.org/2000/svg" viewBox="0 0 775.6 786.42"><defs><style>.cls-1{fill:#fff;}.cls-2{fill:#1a1861;}.cls-3{fill:#8b6ded;}.cls-4{fill:#ffdd45;}</style></defs><title>icon-circuitry</title><g id="Layer_2" data-name="Layer 2"><g id="_ÎÓÈ_1" data-name="—ÎÓÈ_1"><path class="cls-1" d="M19.87,316.72c-3.38,0-6.23,2.55-6.23,5.58v10.46c0,3,2.85,5.58,6.23,5.58h84.05V316.72Z"/><path class="cls-1" d="M755.74,338.34c3.37,0,6.22-2.55,6.22-5.58V322.3c0-3-2.85-5.58-6.22-5.58H664.67v21.62Z"/><path class="cls-1" d="M755.74,454.86c3.37,0,6.22-2.55,6.22-5.58V438.81c0-3-2.85-5.57-6.22-5.57H664.67v21.62Z"/><path class="cls-1" d="M755.74,200.19H664.67v21.63h91.07c3.37,0,6.22-2.56,6.22-5.58V205.77C762,202.75,759.11,200.19,755.74,200.19Z"/><path class="cls-1" d="M19.87,549.76c-3.38,0-6.23,2.55-6.23,5.57v10.48c0,3,2.85,5.57,6.23,5.57h84.05V549.76Z"/><path class="cls-1" d="M19.87,433.24c-3.38,0-6.23,2.55-6.23,5.57v10.47c0,3,2.85,5.58,6.23,5.58h84.05V433.24Z"/><path class="cls-1" d="M568.44,19.87c0-3.38-2.55-6.23-5.58-6.23H552.4c-3,0-5.58,2.85-5.58,6.23v92.56h21.62Z"/><path class="cls-1" d="M19.87,200.19c-3.38,0-6.23,2.56-6.23,5.58v10.47c0,3,2.85,5.58,6.23,5.58h84.05V200.19Z"/><path class="cls-1" d="M218.88,19.87c0-3.38-2.55-6.23-5.58-6.23H202.83c-3,0-5.58,2.85-5.58,6.23v92.56h21.63Z"/><path class="cls-1" d="M313.77,766.55c0,3.38,2.56,6.24,5.58,6.24h10.47c3,0,5.58-2.86,5.58-6.24V673.18H313.77Z"/><path class="cls-1" d="M451.92,19.87c0-3.38-2.56-6.23-5.58-6.23H435.87c-3,0-5.58,2.85-5.58,6.23v92.56h21.63Z"/><path class="cls-1" d="M335.4,19.87c0-3.38-2.56-6.23-5.58-6.23H319.35c-3,0-5.58,2.85-5.58,6.23v92.56H335.4Z"/><path class="cls-1" d="M755.74,571.38c3.37,0,6.22-2.55,6.22-5.57V555.33c0-3-2.85-5.57-6.22-5.57H664.67v21.62Z"/><path class="cls-1" d="M546.82,766.55c0,3.38,2.55,6.24,5.58,6.24h10.46c3,0,5.58-2.86,5.58-6.24V673.18H546.82Z"/><path class="cls-1" d="M430.29,766.55c0,3.38,2.56,6.24,5.58,6.24h10.47c3,0,5.58-2.86,5.58-6.24V673.18H430.29Z"/><path class="cls-1" d="M197.25,766.55c0,3.38,2.56,6.24,5.58,6.24H213.3c3,0,5.58-2.86,5.58-6.24V673.18H197.25Z"/><path class="cls-2" d="M755.74,186.56H664.67V169a56.62,56.62,0,0,0-56.56-56.56h-26V19.87c0-11-8.62-19.87-19.22-19.87H552.4c-10.6,0-19.22,8.91-19.22,19.87v92.56H465.56V19.87c0-11-8.62-19.87-19.22-19.87H435.87c-10.59,0-19.21,8.91-19.21,19.87v92.56H349V19.87C349,8.91,340.42,0,329.82,0H319.35c-10.59,0-19.22,8.91-19.22,19.87v92.56H232.52V19.87c0-11-8.63-19.87-19.22-19.87H202.83c-10.59,0-19.21,8.91-19.21,19.87v92.56H160.48A56.63,56.63,0,0,0,103.92,169v17.57h-84c-11,0-19.87,8.62-19.87,19.21v10.47c0,10.6,8.91,19.22,19.87,19.22h84.05v67.62h-84C8.91,303.08,0,311.7,0,322.3v10.46C0,343.36,8.91,352,19.87,352h84.05V419.6h-84C8.91,419.6,0,428.22,0,438.81v10.47c0,10.6,8.91,19.22,19.87,19.22h84.05v67.62h-84c-11,0-19.87,8.62-19.87,19.21v10.48C0,576.4,8.91,585,19.87,585h84.05v31.6a56.63,56.63,0,0,0,56.56,56.56h23.14v93.37c0,11,8.62,19.87,19.21,19.87H213.3c10.59,0,19.22-8.91,19.22-19.87V673.18h67.61v93.37c0,11,8.63,19.87,19.22,19.87h10.47c10.6,0,19.22-8.91,19.22-19.87V673.18h67.62v93.37c0,11,8.62,19.87,19.21,19.87h10.47c10.6,0,19.22-8.91,19.22-19.87V673.18h67.62v93.37c0,11,8.62,19.87,19.22,19.87h10.46c10.6,0,19.22-8.91,19.22-19.87V673.18h26a56.63,56.63,0,0,0,56.56-56.56V585h91.07c11,0,19.86-8.62,19.86-19.21V555.33c0-10.59-8.91-19.21-19.86-19.21H664.67V468.5h91.07c11,0,19.86-8.62,19.86-19.22V438.81c0-10.59-8.91-19.21-19.86-19.21H664.67V352h91.07c11,0,19.86-8.62,19.86-19.22V322.3c0-10.6-8.91-19.22-19.86-19.22H664.67V235.46h91.07c11,0,19.86-8.62,19.86-19.22V205.77C775.6,195.18,766.69,186.56,755.74,186.56Zm-147.63,473H160.48a43,43,0,0,1-42.92-42.92V169a43,43,0,0,1,42.92-42.92H608.11A43,43,0,0,1,651,169V616.62A43,43,0,0,1,608.11,659.54ZM546.82,19.87c0-3.38,2.55-6.23,5.58-6.23h10.46c3,0,5.58,2.85,5.58,6.23v92.56H546.82Zm-116.53,0c0-3.38,2.56-6.23,5.58-6.23h10.47c3,0,5.58,2.85,5.58,6.23v92.56H430.29Zm-116.52,0c0-3.38,2.56-6.23,5.58-6.23h10.47c3,0,5.58,2.85,5.58,6.23v92.56H313.77Zm-116.52,0c0-3.38,2.56-6.23,5.58-6.23H213.3c3,0,5.58,2.85,5.58,6.23v92.56H197.25Zm-177.38,202c-3.38,0-6.23-2.56-6.23-5.58V205.77c0-3,2.85-5.58,6.23-5.58h84.05v21.63Zm0,116.52c-3.38,0-6.23-2.55-6.23-5.58V322.3c0-3,2.85-5.58,6.23-5.58h84.05v21.62Zm0,116.52c-3.38,0-6.23-2.55-6.23-5.58V438.81c0-3,2.85-5.57,6.23-5.57h84.05v21.62Zm0,116.52c-3.38,0-6.23-2.55-6.23-5.57V555.33c0-3,2.85-5.57,6.23-5.57h84.05v21.62Zm199,195.17c0,3.38-2.55,6.24-5.58,6.24H202.83c-3,0-5.58-2.86-5.58-6.24V673.18h21.63Zm116.52,0c0,3.38-2.56,6.24-5.58,6.24H319.35c-3,0-5.58-2.86-5.58-6.24V673.18H335.4Zm116.52,0c0,3.38-2.56,6.24-5.58,6.24H435.87c-3,0-5.58-2.86-5.58-6.24V673.18h21.63Zm116.52,0c0,3.38-2.55,6.24-5.58,6.24H552.4c-3,0-5.58-2.86-5.58-6.24V673.18h21.62Zm187.3-216.79c3.37,0,6.22,2.55,6.22,5.57v10.48c0,3-2.85,5.57-6.22,5.57H664.67V549.76Zm0-116.52c3.37,0,6.22,2.55,6.22,5.57v10.47c0,3-2.85,5.58-6.22,5.58H664.67V433.24Zm0-116.52c3.37,0,6.22,2.55,6.22,5.58v10.46c0,3-2.85,5.58-6.22,5.58H664.67V316.72ZM762,216.24c0,3-2.85,5.58-6.22,5.58H664.67V200.19h91.07c3.37,0,6.22,2.56,6.22,5.58Z"/><path class="cls-1" d="M651,169a43,43,0,0,0-42.92-42.92H160.48A43,43,0,0,0,117.56,169V616.62a43,43,0,0,0,42.92,42.92H608.11A43,43,0,0,0,651,616.62ZM622.91,616.62a14.82,14.82,0,0,1-14.8,14.8H160.48a14.82,14.82,0,0,1-14.8-14.8V169a14.82,14.82,0,0,1,14.8-14.8H608.11a14.82,14.82,0,0,1,14.8,14.8Z"/><path class="cls-3" d="M608.11,167.83H160.48a1.17,1.17,0,0,0-1.16,1.16V616.62a1.17,1.17,0,0,0,1.16,1.16H608.11a1.17,1.17,0,0,0,1.16-1.16V169A1.17,1.17,0,0,0,608.11,167.83ZM299.56,216h61.16a24.27,24.27,0,0,1,6.14-10.63,24.69,24.69,0,0,1,34.88,0A24.34,24.34,0,0,1,407.87,216h61.59a6.82,6.82,0,0,1,0,13.64H407.87a24.28,24.28,0,0,1-6.13,10.61,24.67,24.67,0,0,1-34.88,0,24.2,24.2,0,0,1-6.14-10.61H299.56a6.82,6.82,0,0,1,0-13.64Zm-93.36-.87a28.76,28.76,0,0,1,44.92,35.28l79.95,80a28.77,28.77,0,1,1-9.65,9.63L241.48,260a28.76,28.76,0,0,1-35.28-44.92Zm-5.75,167.23a24.43,24.43,0,0,1,10.62-6.14V314.62a6.82,6.82,0,0,1,13.64,0v61.59a24.43,24.43,0,0,1,10.62,6.14,24.69,24.69,0,0,1,0,34.88,24.43,24.43,0,0,1-10.62,6.14v61.15a6.82,6.82,0,0,1-13.64,0V423.37a24.55,24.55,0,0,1-10.62-41Zm46.45,189a28.78,28.78,0,1,1-5.42-44.93l75.9-75.89a28.82,28.82,0,1,1,9.64,9.64L251.12,536A28.8,28.8,0,0,1,246.9,571.31Zm222.56-4.44H407.89a24.5,24.5,0,0,1-47.19,0H299.56a6.82,6.82,0,0,1,0-13.64H360.7a24.37,24.37,0,0,1,6.16-10.62,24.69,24.69,0,0,1,34.88,0,24.45,24.45,0,0,1,6.15,10.62h61.57a6.82,6.82,0,1,1,0,13.64Zm92.93,4.44A28.76,28.76,0,0,1,517.47,536l-75.9-75.9a28.76,28.76,0,1,1,9.65-9.64l75.89,75.89a28.77,28.77,0,0,1,35.28,44.93Zm0-189a24.48,24.48,0,0,1-10.61,41v61.15a6.82,6.82,0,1,1-13.64,0V423.37a24.47,24.47,0,0,1,0-47.16V314.62a6.82,6.82,0,0,1,13.64,0v61.59A24.4,24.4,0,0,1,562.42,382.35Zm0-126.53A28.73,28.73,0,0,1,527.11,260L447.17,340a28.8,28.8,0,1,1-9.65-9.64l80-80a28.77,28.77,0,1,1,44.92,5.42Z"/><path class="cls-2" d="M608.11,154.19H160.48a14.82,14.82,0,0,0-14.8,14.8V616.62a14.82,14.82,0,0,0,14.8,14.8H608.11a14.82,14.82,0,0,0,14.8-14.8V169A14.82,14.82,0,0,0,608.11,154.19Zm1.16,462.43a1.17,1.17,0,0,1-1.16,1.16H160.48a1.17,1.17,0,0,1-1.16-1.16V169a1.17,1.17,0,0,1,1.16-1.16H608.11a1.17,1.17,0,0,1,1.16,1.16Z"/><path class="cls-4" d="M552.75,246.18a15.15,15.15,0,1,0-21.42,0A15.17,15.17,0,0,0,552.75,246.18Z"/><path class="cls-2" d="M542,206.68a28.77,28.77,0,0,0-24.57,43.72l-80,80a28.77,28.77,0,1,0,9.65,9.64L527.11,260A28.77,28.77,0,1,0,542,206.68Zm-10.71,18.08a15.15,15.15,0,1,1,0,21.42A15,15,0,0,1,531.33,224.76Zm-98,140.87a15.14,15.14,0,1,1,0-21.42A15.17,15.17,0,0,1,433.3,365.63Z"/><path class="cls-4" d="M422.59,339.78a15.14,15.14,0,1,0,10.71,4.43A15.1,15.1,0,0,0,422.59,339.78Z"/><path class="cls-2" d="M327,460.13a28.78,28.78,0,1,0-9.64-9.64l-75.9,75.89a28.8,28.8,0,1,0,9.64,9.65Zm4.22-35.28a15.15,15.15,0,1,1,0,21.42A15,15,0,0,1,331.24,424.85Zm-94,136.81a15.48,15.48,0,0,1-21.42,0,15.14,15.14,0,1,1,21.42,0Z"/><path class="cls-4" d="M352.66,446.27a15.15,15.15,0,1,0-21.42,0A15.17,15.17,0,0,0,352.66,446.27Z"/><path class="cls-4" d="M226.55,535.81a15.15,15.15,0,0,0-10.71,25.85,15.48,15.48,0,0,0,21.42,0,15.15,15.15,0,0,0-10.71-25.85Z"/><path class="cls-4" d="M237.26,246.18a15.16,15.16,0,0,0,0-21.42,15.49,15.49,0,0,0-21.42,0,15.15,15.15,0,0,0,21.42,21.42Z"/><path class="cls-2" d="M226.55,264.24a28.72,28.72,0,0,0,14.93-4.2L321.42,340a28.81,28.81,0,1,0,9.65-9.63l-79.95-80a28.76,28.76,0,1,0-24.57,13.84Zm-10.71-39.48a15.49,15.49,0,0,1,21.42,0,15.15,15.15,0,1,1-21.42,0ZM356.71,344.21a15.16,15.16,0,1,1-10.7-4.43A15.16,15.16,0,0,1,356.71,344.21Z"/><path class="cls-4" d="M335.29,344.21A15.16,15.16,0,1,0,346,339.78,15,15,0,0,0,335.29,344.21Z"/><path class="cls-4" d="M437.35,446.27a15.16,15.16,0,0,0,0-21.42,15.49,15.49,0,0,0-21.42,0,15.15,15.15,0,1,0,21.42,21.42Z"/><path class="cls-4" d="M542,535.81a15.15,15.15,0,0,0-10.71,25.85,15.48,15.48,0,0,0,21.42,0A15.15,15.15,0,0,0,542,535.81Z"/><path class="cls-2" d="M527.11,526.38l-75.89-75.89a28.86,28.86,0,1,0-9.65,9.64l75.9,75.9a28.77,28.77,0,1,0,9.64-9.65Zm25.64,35.28a15.48,15.48,0,0,1-21.42,0,15.14,15.14,0,1,1,21.42,0ZM415.93,446.27a15.17,15.17,0,0,1,0-21.42,15.49,15.49,0,0,1,21.42,0,15.15,15.15,0,0,1-21.42,21.42Z"/><path class="cls-2" d="M299.56,229.63h61.16a24.2,24.2,0,0,0,6.14,10.61,24.67,24.67,0,0,0,34.88,0,24.28,24.28,0,0,0,6.13-10.61h61.59a6.82,6.82,0,0,0,0-13.64H407.87a24.34,24.34,0,0,0-6.13-10.63,24.69,24.69,0,0,0-34.88,0A24.27,24.27,0,0,0,360.72,216H299.56a6.82,6.82,0,0,0,0,13.64ZM376.5,215a11,11,0,1,1,0,15.59A11,11,0,0,1,376.5,215Z"/><path class="cls-4" d="M376.5,230.6a11,11,0,1,0,0-15.59A11,11,0,0,0,376.5,230.6Z"/><path class="cls-2" d="M469.46,553.23H407.89a24.45,24.45,0,0,0-6.15-10.62,24.69,24.69,0,0,0-34.88,0,24.37,24.37,0,0,0-6.16,10.62H299.56a6.82,6.82,0,0,0,0,13.64H360.7a24.49,24.49,0,0,0,47.19,0h61.57a6.82,6.82,0,1,0,0-13.64Zm-74.14,6.82a10.91,10.91,0,0,1-3.23,7.79,11,11,0,1,1,0-15.59A10.92,10.92,0,0,1,395.32,560.05Z"/><path class="cls-4" d="M392.09,552.25a11,11,0,1,0,3.23,7.8A11,11,0,0,0,392.09,552.25Z"/><path class="cls-2" d="M545,307.81a6.81,6.81,0,0,0-6.82,6.81v61.59a24.47,24.47,0,0,0,0,47.16v61.15a6.82,6.82,0,1,0,13.64,0V423.37a24.48,24.48,0,0,0,0-47.16V314.62A6.82,6.82,0,0,0,545,307.81Zm11,92a11,11,0,1,1-3.23-7.8A11,11,0,0,1,556,399.79Z"/><path class="cls-4" d="M545,388.77a11,11,0,1,0,7.8,3.22A11,11,0,0,0,545,388.77Z"/><path class="cls-1" d="M225.69,407.59a11,11,0,1,0-15.6,0A11.06,11.06,0,0,0,225.69,407.59Z"/><path class="cls-2" d="M211.07,423.37v61.15a6.82,6.82,0,0,0,13.64,0V423.37a24.43,24.43,0,0,0,10.62-6.14,24.69,24.69,0,0,0,0-34.88,24.43,24.43,0,0,0-10.62-6.14V314.62a6.82,6.82,0,0,0-13.64,0v61.59a24.47,24.47,0,0,0,0,47.16Zm-1-31.38a11,11,0,1,1-3.23,7.8A11,11,0,0,1,210.09,392Z"/></g></g></svg>