<?xml version="1.0" encoding="UTF-8"?>
<svg width="776px" height="787px" viewBox="0 0 776 787" version="1.1" xmlns="http://www.w3.org/2000/svg" xmlns:xlink="http://www.w3.org/1999/xlink">
    <!-- Generator: Sketch 52.5 (67469) - http://www.bohemiancoding.com/sketch -->
    <title>Group</title>
    <desc>Created with Sketch.</desc>
    <defs>
        <polygon id="path-1" points="0.0001 0.5754 775.602 0.5754 775.602 787 0.0001 787"></polygon>
    </defs>
    <g id="Page-1" stroke="none" stroke-width="1" fill="none" fill-rule="evenodd">
        <g id="Group" transform="translate(0.000000, -1.000000)">
            <g id="Chip">
                <rect id="Rectangle" fill="#8B6DED" x="155" y="166" width="457" height="457"></rect>
                <path d="M19.8704,317.715 C16.4914,317.715 13.6374,320.272 13.6374,323.295 L13.6374,333.763 C13.6374,336.786 16.4914,339.339 19.8704,339.339 L103.9234,339.339 L103.9234,317.715 L19.8704,317.715 Z" id="Fill-1" fill="#FFFFFF"></path>
                <path d="M19.8704,434.2365 C16.4914,434.2365 13.6374,436.7895 13.6374,439.8125 L13.6374,450.2855 C13.6374,453.3075 16.4914,455.8605 19.8704,455.8605 L103.9234,455.8605 L103.9234,434.2365 L19.8704,434.2365 Z" id="Fill-3" fill="#FFFFFF"></path>
                <path d="M568.4436,20.8703 C568.4436,17.4923 565.8856,14.6383 562.8636,14.6383 L552.3956,14.6383 C549.3726,14.6383 546.8156,17.4923 546.8156,20.8703 L546.8156,113.4333 L568.4436,113.4333 L568.4436,20.8703 Z" id="Fill-5" fill="#FFFFFF"></path>
                <path d="M19.8704,201.1936 C16.4914,201.1936 13.6374,203.7506 13.6374,206.7736 L13.6374,217.2416 C13.6374,220.2636 16.4914,222.8216 19.8704,222.8216 L103.9234,222.8216 L103.9234,201.1936 L19.8704,201.1936 Z" id="Fill-7" fill="#FFFFFF"></path>
                <path d="M218.8782,20.8703 C218.8782,17.4923 216.3252,14.6383 213.3022,14.6383 L202.8302,14.6383 C199.8072,14.6383 197.2542,17.4923 197.2542,20.8703 L197.2542,113.4333 L218.8782,113.4333 L218.8782,20.8703 Z" id="Fill-9" fill="#FFFFFF"></path>
                <path d="M451.9221,20.8703 C451.9221,17.4923 449.3641,14.6383 446.3411,14.6383 L435.8731,14.6383 C432.8511,14.6383 430.2931,17.4923 430.2931,20.8703 L430.2931,113.4333 L451.9221,113.4333 L451.9221,20.8703 Z" id="Fill-11" fill="#FFFFFF"></path>
                <path d="M335.3997,20.8703 C335.3997,17.4923 332.8427,14.6383 329.8197,14.6383 L319.3517,14.6383 C316.3287,14.6383 313.7717,17.4923 313.7717,20.8703 L313.7717,113.4333 L335.3997,113.4333 L335.3997,20.8703 Z" id="Fill-13" fill="#FFFFFF"></path>
                <g id="Group-17" transform="translate(0.000000, 0.425000)">
                    <mask id="mask-2" fill="white">
                        <use xlink:href="#path-1"></use>
                    </mask>
                    <g id="Clip-16"></g>
                    <path d="M761.9641,216.8164 C761.9641,219.8384 759.1141,222.3964 755.7361,222.3964 L664.6691,222.3964 L664.6691,200.7684 L755.7361,200.7684 C759.1141,200.7684 761.9641,203.3254 761.9641,206.3484 L761.9641,216.8164 Z M755.7361,317.2904 C759.1141,317.2904 761.9641,319.8464 761.9641,322.8704 L761.9641,333.3374 C761.9641,336.3614 759.1141,338.9144 755.7361,338.9144 L664.6691,338.9144 L664.6691,317.2904 L755.7361,317.2904 Z M755.7361,433.8114 C759.1141,433.8114 761.9641,436.3644 761.9641,439.3874 L761.9641,449.8604 C761.9641,452.8824 759.1141,455.4354 755.7361,455.4354 L664.6691,455.4354 L664.6691,433.8114 L755.7361,433.8114 Z M755.7361,550.3344 C759.1141,550.3344 761.9641,552.8864 761.9641,555.9094 L761.9641,566.3814 C761.9641,569.4054 759.1141,571.9574 755.7361,571.9574 L664.6691,571.9574 L664.6691,550.3344 L755.7361,550.3344 Z M568.4431,767.1294 C568.4431,770.5074 565.8861,773.3624 562.8631,773.3624 L552.3961,773.3624 C549.3721,773.3624 546.8161,770.5074 546.8161,767.1294 L546.8161,673.7534 L568.4431,673.7534 L568.4431,767.1294 Z M451.9221,767.1294 C451.9221,770.5074 449.3641,773.3624 446.3411,773.3624 L435.8731,773.3624 C432.8511,773.3624 430.2931,770.5074 430.2931,767.1294 L430.2931,673.7534 L451.9221,673.7534 L451.9221,767.1294 Z M335.4001,767.1294 C335.4001,770.5074 332.8431,773.3624 329.8191,773.3624 L319.3521,773.3624 C316.3281,773.3624 313.7721,770.5074 313.7721,767.1294 L313.7721,673.7534 L335.4001,673.7534 L335.4001,767.1294 Z M218.8781,767.1294 C218.8781,770.5074 216.3251,773.3624 213.3021,773.3624 L202.8301,773.3624 C199.8071,773.3624 197.2541,770.5074 197.2541,767.1294 L197.2541,673.7534 L218.8781,673.7534 L218.8781,767.1294 Z M19.8701,571.9574 C16.4911,571.9574 13.6371,569.4054 13.6371,566.3814 L13.6371,555.9094 C13.6371,552.8864 16.4911,550.3344 19.8701,550.3344 L103.9231,550.3344 L103.9231,571.9574 L19.8701,571.9574 Z M19.8701,455.4354 C16.4911,455.4354 13.6371,452.8824 13.6371,449.8604 L13.6371,439.3874 C13.6371,436.3644 16.4911,433.8114 19.8701,433.8114 L103.9231,433.8114 L103.9231,455.4354 L19.8701,455.4354 Z M19.8701,338.9144 C16.4911,338.9144 13.6371,336.3614 13.6371,333.3374 L13.6371,322.8704 C13.6371,319.8464 16.4911,317.2904 19.8701,317.2904 L103.9231,317.2904 L103.9231,338.9144 L19.8701,338.9144 Z M19.8701,222.3964 C16.4911,222.3964 13.6371,219.8384 13.6371,216.8164 L13.6371,206.3484 C13.6371,203.3254 16.4911,200.7684 19.8701,200.7684 L103.9231,200.7684 L103.9231,222.3964 L19.8701,222.3964 Z M197.2541,20.4454 C197.2541,17.0674 199.8071,14.2124 202.8301,14.2124 L213.3021,14.2124 C216.3251,14.2124 218.8781,17.0674 218.8781,20.4454 L218.8781,113.0084 L197.2541,113.0084 L197.2541,20.4454 Z M313.7721,20.4454 C313.7721,17.0674 316.3281,14.2124 319.3521,14.2124 L329.8191,14.2124 C332.8431,14.2124 335.4001,17.0674 335.4001,20.4454 L335.4001,113.0084 L313.7721,113.0084 L313.7721,20.4454 Z M430.2931,20.4454 C430.2931,17.0674 432.8511,14.2124 435.8731,14.2124 L446.3411,14.2124 C449.3641,14.2124 451.9221,17.0674 451.9221,20.4454 L451.9221,113.0084 L430.2931,113.0084 L430.2931,20.4454 Z M546.8161,20.4454 C546.8161,17.0674 549.3721,14.2124 552.3961,14.2124 L562.8631,14.2124 C565.8861,14.2124 568.4431,17.0674 568.4431,20.4454 L568.4431,113.0084 L546.8161,113.0084 L546.8161,20.4454 Z M608.1121,660.1174 L160.4841,660.1174 C136.8181,660.1174 117.5611,640.8594 117.5611,617.1934 L117.5611,169.5644 C117.5611,145.8984 136.8181,126.6454 160.4841,126.6454 L608.1121,126.6454 C631.7781,126.6454 651.0311,145.8984 651.0311,169.5644 L651.0311,617.1934 C651.0311,640.8594 631.7781,660.1174 608.1121,660.1174 Z M755.7361,187.1304 L664.6691,187.1304 L664.6691,169.5644 C664.6691,138.3784 639.2991,113.0084 608.1121,113.0084 L582.0811,113.0084 L582.0811,20.4454 C582.0811,9.4894 573.4601,0.5754 562.8631,0.5754 L552.3961,0.5754 C541.7991,0.5754 533.1781,9.4894 533.1781,20.4454 L533.1781,113.0084 L465.5591,113.0084 L465.5591,20.4454 C465.5591,9.4894 456.9381,0.5754 446.3411,0.5754 L435.8731,0.5754 C425.2781,0.5754 416.6561,9.4894 416.6561,20.4454 L416.6561,113.0084 L349.0371,113.0084 L349.0371,20.4454 C349.0371,9.4894 340.4161,0.5754 329.8191,0.5754 L319.3521,0.5754 C308.7551,0.5754 300.1341,9.4894 300.1341,20.4454 L300.1341,113.0084 L232.5151,113.0084 L232.5151,20.4454 C232.5151,9.4894 223.8951,0.5754 213.3021,0.5754 L202.8301,0.5754 C192.2371,0.5754 183.6161,9.4894 183.6161,20.4454 L183.6161,113.0084 L160.4841,113.0084 C129.2981,113.0084 103.9231,138.3784 103.9231,169.5644 L103.9231,187.1304 L19.8701,187.1304 C8.9141,187.1304 0.0001,195.7524 0.0001,206.3484 L0.0001,216.8164 C0.0001,227.4134 8.9141,236.0344 19.8701,236.0344 L103.9231,236.0344 L103.9231,303.6524 L19.8701,303.6524 C8.9141,303.6524 0.0001,312.2734 0.0001,322.8704 L0.0001,333.3374 C0.0001,343.9304 8.9141,352.5504 19.8701,352.5504 L103.9231,352.5504 L103.9231,420.1744 L19.8701,420.1744 C8.9141,420.1744 0.0001,428.7954 0.0001,439.3874 L0.0001,449.8604 C0.0001,460.4524 8.9141,469.0734 19.8701,469.0734 L103.9231,469.0734 L103.9231,536.6964 L19.8701,536.6964 C8.9141,536.6964 0.0001,545.3174 0.0001,555.9094 L0.0001,566.3814 C0.0001,576.9734 8.9141,585.5944 19.8701,585.5944 L103.9231,585.5944 L103.9231,617.1934 C103.9231,648.3794 129.2981,673.7534 160.4841,673.7534 L183.6161,673.7534 L183.6161,767.1294 C183.6161,778.0864 192.2371,787.0004 202.8301,787.0004 L213.3021,787.0004 C223.8951,787.0004 232.5151,778.0864 232.5151,767.1294 L232.5151,673.7534 L300.1341,673.7534 L300.1341,767.1294 C300.1341,778.0864 308.7551,787.0004 319.3521,787.0004 L329.8191,787.0004 C340.4161,787.0004 349.0371,778.0864 349.0371,767.1294 L349.0371,673.7534 L416.6561,673.7534 L416.6561,767.1294 C416.6561,778.0864 425.2781,787.0004 435.8731,787.0004 L446.3411,787.0004 C456.9381,787.0004 465.5591,778.0864 465.5591,767.1294 L465.5591,673.7534 L533.1781,673.7534 L533.1781,767.1294 C533.1781,778.0864 541.7991,787.0004 552.3961,787.0004 L562.8631,787.0004 C573.4601,787.0004 582.0811,778.0864 582.0811,767.1294 L582.0811,673.7534 L608.1121,673.7534 C639.2991,673.7534 664.6691,648.3794 664.6691,617.1934 L664.6691,585.5944 L755.7361,585.5944 C766.6931,585.5944 775.6021,576.9734 775.6021,566.3814 L775.6021,555.9094 C775.6021,545.3174 766.6931,536.6964 755.7361,536.6964 L664.6691,536.6964 L664.6691,469.0734 L755.7361,469.0734 C766.6931,469.0734 775.6021,460.4524 775.6021,449.8604 L775.6021,439.3874 C775.6021,428.7954 766.6931,420.1744 755.7361,420.1744 L664.6691,420.1744 L664.6691,352.5504 L755.7361,352.5504 C766.6931,352.5504 775.6021,343.9304 775.6021,333.3374 L775.6021,322.8704 C775.6021,312.2734 766.6931,303.6524 755.7361,303.6524 L664.6691,303.6524 L664.6691,236.0344 L755.7361,236.0344 C766.6931,236.0344 775.6021,227.4134 775.6021,216.8164 L775.6021,206.3484 C775.6021,195.7524 766.6931,187.1304 755.7361,187.1304 Z" id="Fill-15" fill="#1A1861" mask="url(#mask-2)"></path>
                </g>
                <path d="M622.9084,617.6232 C622.9084,625.7822 616.2714,632.4192 608.1124,632.4192 L160.4794,632.4192 C152.3204,632.4192 145.6834,625.7822 145.6834,617.6232 L145.6834,169.9892 C145.6834,161.8302 152.3204,155.1932 160.4794,155.1932 L608.1124,155.1932 C616.2714,155.1932 622.9084,161.8302 622.9084,169.9892 L622.9084,617.6232 Z M651.0314,169.9892 C651.0314,146.3232 631.7784,127.0702 608.1124,127.0702 L160.4834,127.0702 C136.8184,127.0702 117.5604,146.3232 117.5604,169.9892 L117.5604,617.6182 C117.5604,641.2842 136.8184,660.5422 160.4834,660.5422 L608.1124,660.5422 C631.7784,660.5422 651.0314,641.2842 651.0314,617.6182 L651.0314,169.9892 Z" id="Fill-18" fill="#FFFFFF"></path>
                <path d="M609.2717,617.6232 C609.2717,618.2492 608.7387,618.7812 608.1127,618.7812 L160.4797,618.7812 C159.8537,618.7812 159.3207,618.2492 159.3207,617.6232 L159.3207,169.9892 C159.3207,169.3632 159.8537,168.8312 160.4797,168.8312 L608.1127,168.8312 C608.7387,168.8312 609.2717,169.3632 609.2717,169.9892 L609.2717,617.6232 Z M608.1127,155.1932 L160.4797,155.1932 C152.3207,155.1932 145.6837,161.8302 145.6837,169.9892 L145.6837,617.6232 C145.6837,625.7822 152.3207,632.4192 160.4797,632.4192 L608.1127,632.4192 C616.2717,632.4192 622.9087,625.7822 622.9087,617.6232 L622.9087,169.9892 C622.9087,161.8302 616.2717,155.1932 608.1127,155.1932 Z" id="Fill-20" fill="#1A1861"></path>
            </g>
            <g id="blockchain-boat" transform="translate(197.000000, 205.000000)">
                <polygon id="Fill-1" fill="#FFDD45" points="324 122 370 98.9203017 370 40 324 63.0796983"></polygon>
                <polygon id="Fill-2" fill="#FFDD45" points="319.499618 255 274 277.498111 319.499618 300 365 277.498111"></polygon>
                <polygon id="Fill-3" fill="#FFDD45" points="189.500382 82 144 104.498489 189.500382 127 235 104.498489"></polygon>
                <polygon id="Fill-4" fill="#FFDD45" points="324 366 370 342.920846 370 284 324 307.079154"></polygon>
                <polygon id="Fill-5" fill="#FFDD45" points="319.499618 9 274 31.4984886 319.499618 54 365 31.4984886"></polygon>
                <polygon id="Fill-6" fill="#FFDD45" points="65 366 111 342.920846 111 284 65 307.079154"></polygon>
                <polygon id="Fill-7" fill="#FFDD45" points="268 342.920846 314 366 314 307.079154 268 284"></polygon>
                <polygon id="Fill-8" fill="#FFDD45" points="59.5 255 14 277.498111 59.5 300 105 277.498111"></polygon>
                <polygon id="Fill-9" fill="#FFDD45" points="9 342.920846 55 366 55 307.079154 9 284"></polygon>
                <polygon id="Fill-10" fill="#FFDD45" points="55 63.0796983 9 40 9 98.9203017 55 122"></polygon>
                <polygon id="Fill-11" fill="#FFDD45" points="105 31.4984886 59.4996179 9 14 31.4984886 59.4996179 54"></polygon>
                <g id="Group-26" fill="#1A1861">
                    <path d="M89.8844738,76.6594962 C87.6188118,75.5763142 84.8377098,76.4427082 83.6825178,78.7356582 C82.5447598,81.0104162 83.4657298,83.7907602 85.7495838,84.9285182 L113.481772,98.8181102 C115.747434,99.9012922 118.527778,99.0356562 119.683728,96.7427062 C120.820728,94.4671902 119.900516,91.6868462 117.615904,90.5498462 L89.8844738,76.6594962 Z" id="Fill-12"></path>
                    <path d="M265.51838,98.8103028 L293.250568,84.9290488 C295.534422,83.7912908 296.454634,81.0109468 295.317634,78.7354308 C294.17078,76.4424808 291.408628,75.5586528 289.115678,76.6592688 L261.384248,90.5412808 C259.099636,91.6790388 258.178666,94.4593828 259.316424,96.7341408 C260.463278,99.0270908 263.226188,99.9116768 265.51838,98.8103028" id="Fill-14"></path>
                    <path d="M189.5,126.345562 L144.367164,103.775354 L189.5,81.2096944 L234.632078,103.775354 L189.5,126.345562 Z M228.110246,275.963392 L194.122284,292.953204 L194.122284,134.36596 L240.341334,111.256056 L240.341334,246.06484 C240.341334,248.610962 242.409158,250.687124 244.963618,250.687124 C247.518078,250.687124 249.585902,248.610962 249.585902,246.06484 L249.585902,103.777628 C249.585902,102.026648 248.592164,100.41893 247.030684,99.6427384 L191.567824,71.9113084 C190.267096,71.2617024 188.732904,71.2617024 187.432176,71.9113084 L131.969316,99.6427384 C130.407836,100.41893 129.414098,102.026648 129.414098,103.777628 L129.414098,246.06484 C129.414098,248.610962 131.481922,250.687124 134.036382,250.687124 C136.5916,250.687124 138.658666,248.610962 138.658666,246.06484 L138.658666,111.256056 L184.877716,134.36596 L184.877716,292.953204 L150.890512,275.963392 C148.615754,274.862018 145.844506,275.764796 144.688556,278.039554 C143.550798,280.314312 144.472526,283.094656 146.755622,284.232414 L187.432176,304.561216 C188.732904,305.21158 190.267096,305.21158 191.567824,304.561216 L232.244378,284.232414 C234.527474,283.094656 235.448444,280.314312 234.310686,278.039554 C233.16459,275.746604 230.402438,274.843826 228.110246,275.963392 Z" id="Fill-16"></path>
                    <path d="M369.755963,343.793856 L323.536155,366.903002 L323.536155,307.905588 L369.755963,284.796442 L369.755963,343.793856 Z M318.914629,299.88519 L273.782551,277.31574 L318.914629,254.748564 L364.047465,277.31574 L318.914629,299.88519 Z M314.292345,366.903002 L268.073295,343.793856 L268.073295,284.796442 L314.292345,307.905588 L314.292345,366.903002 Z M376.445313,273.183124 L320.981695,245.450936 C319.681725,244.80133 318.147533,244.80133 316.846805,245.450936 L263.548793,272.1007 L219.461239,247.853038 C217.222865,246.606128 214.424329,247.418704 213.178935,249.676028 C211.950217,251.914402 212.763551,254.712938 215.001925,255.940898 L258.829485,280.045298 L258.829485,346.646968 C258.829485,348.39719 259.822465,350.00415 261.383945,350.7811 L316.846805,378.513288 C318.147533,379.162136 319.681725,379.162136 320.981695,378.513288 L376.445313,350.7811 C378.006793,350.00415 378.999773,348.39719 378.999773,346.646968 L378.999773,277.317256 C378.999773,275.565518 378.006793,273.959316 376.445313,273.183124 Z" id="Fill-18"></path>
                    <path d="M9.2440374,39.8329 L55.4638454,62.942804 L55.4638454,121.940218 L9.2440374,98.830314 L9.2440374,39.8329 Z M60.0853714,9.78578 L105.217449,32.352198 L60.0853714,54.921648 L14.9525354,32.352198 L60.0853714,9.78578 Z M2.5546874,105.817558 L58.0183054,133.549746 C59.3182754,134.199352 60.8524674,134.199352 62.1524374,133.549746 L103.931123,112.660782 C106.214977,111.523024 107.135189,108.74268 105.998189,106.467164 C104.860431,104.174214 102.089183,103.289628 99.7962334,104.391002 L64.7068974,121.93946 L64.7068974,62.942804 L110.926705,39.8329 L110.926705,73.951238 C110.926705,76.49736 112.994529,78.573522 115.548989,78.573522 C118.103449,78.573522 120.170515,76.49736 120.170515,73.951238 L120.170515,32.353714 C120.170515,30.602734 119.177535,28.995774 117.616055,28.219582 L62.1524374,0.487394 C60.8524674,-0.162212 59.3182754,-0.162212 58.0183054,0.487394 L2.5546874,28.219582 C0.9932074,28.995774 0.0002274,30.602734 0.0002274,32.353714 L0.0002274,101.683426 C0.0002274,103.434406 0.9932074,105.041366 2.5546874,105.817558 Z" id="Fill-20"></path>
                    <path d="M369.755963,98.830314 L323.536155,121.940218 L323.536155,62.942804 L369.755963,39.8329 L369.755963,98.830314 Z M318.914629,54.921648 L273.782551,32.352198 L318.914629,9.78578 L364.047465,32.352198 L318.914629,54.921648 Z M376.445313,28.219582 L320.981695,0.487394 C319.681725,-0.162212 318.147533,-0.162212 316.846805,0.487394 L261.383945,28.219582 C259.822465,28.995774 258.829485,30.602734 258.829485,32.353714 L258.829485,73.951238 C258.829485,76.49736 260.896551,78.573522 263.451011,78.573522 C266.006229,78.573522 268.073295,76.49736 268.073295,73.951238 L268.073295,39.8329 L314.292345,62.942804 L314.292345,121.93946 L279.203767,104.391002 C276.938105,103.30782 274.148665,104.174214 273.001811,106.467164 C271.864053,108.74268 272.785023,111.523024 275.069635,112.660782 L316.846805,133.549746 C318.147533,134.199352 319.681725,134.199352 320.981695,133.549746 L376.445313,105.817558 C378.006793,105.041366 378.999773,103.434406 378.999773,101.683426 L378.999773,32.353714 C378.999773,30.602734 378.006793,28.995774 376.445313,28.219582 Z" id="Fill-22"></path>
                    <path d="M110.926705,343.793856 L64.7068974,366.903002 L64.7068974,307.905588 L110.926705,284.796442 L110.926705,343.793856 Z M60.0853714,299.88519 L14.9525354,277.31574 L60.0853714,254.748564 L105.217449,277.31574 L60.0853714,299.88519 Z M55.4638454,366.903002 L9.2440374,343.793856 L9.2440374,284.796442 L55.4638454,307.905588 L55.4638454,366.903002 Z M165.821065,249.676028 C164.575671,247.418704 161.786231,246.606128 159.538761,247.853038 L115.451207,272.1007 L62.1524374,245.450936 C60.8524674,244.80133 59.3182754,244.80133 58.0183054,245.450936 L2.5546874,273.183124 C0.9932074,273.959316 0.0002274,275.565518 0.0002274,277.317256 L0.0002274,346.646968 C0.0002274,348.39719 0.9932074,350.00415 2.5546874,350.7811 L58.0183054,378.513288 C59.3182754,379.162136 60.8524674,379.162136 62.1524374,378.513288 L117.616055,350.7811 C119.177535,350.00415 120.170515,348.39719 120.170515,346.646968 L120.170515,280.045298 L163.998075,255.940898 C166.236449,254.712938 167.049025,251.914402 165.821065,249.676028 Z" id="Fill-24"></path>
                </g>
            </g>
        </g>
    </g>
</svg>