<?xml version="1.0" encoding="UTF-8"?>
<svg width="776px" height="787px" viewBox="0 0 776 787" version="1.1" xmlns="http://www.w3.org/2000/svg" xmlns:xlink="http://www.w3.org/1999/xlink">
    <!-- Generator: Sketch 52.5 (67469) - http://www.bohemiancoding.com/sketch -->
    <title>Group</title>
    <desc>Created with Sketch.</desc>
    <defs>
        <polygon id="path-1" points="0.0001 0.5754 775.602 0.5754 775.602 787 0.0001 787"></polygon>
        <polygon id="path-3" points="0 492 492 492 492 0 0 0"></polygon>
    </defs>
    <g id="Page-1" stroke="none" stroke-width="1" fill="none" fill-rule="evenodd">
        <g id="Group" transform="translate(0.000000, -1.000000)">
            <g id="Chip">
                <path d="M19.8704,317.715 C16.4914,317.715 13.6374,320.272 13.6374,323.295 L13.6374,333.763 C13.6374,336.786 16.4914,339.339 19.8704,339.339 L103.9234,339.339 L103.9234,317.715 L19.8704,317.715 Z" id="Fill-1" fill="#FFFFFF"></path>
                <path d="M19.8704,434.2365 C16.4914,434.2365 13.6374,436.7895 13.6374,439.8125 L13.6374,450.2855 C13.6374,453.3075 16.4914,455.8605 19.8704,455.8605 L103.9234,455.8605 L103.9234,434.2365 L19.8704,434.2365 Z" id="Fill-3" fill="#FFFFFF"></path>
                <path d="M568.4436,20.8703 C568.4436,17.4923 565.8856,14.6383 562.8636,14.6383 L552.3956,14.6383 C549.3726,14.6383 546.8156,17.4923 546.8156,20.8703 L546.8156,113.4333 L568.4436,113.4333 L568.4436,20.8703 Z" id="Fill-5" fill="#FFFFFF"></path>
                <path d="M19.8704,201.1936 C16.4914,201.1936 13.6374,203.7506 13.6374,206.7736 L13.6374,217.2416 C13.6374,220.2636 16.4914,222.8216 19.8704,222.8216 L103.9234,222.8216 L103.9234,201.1936 L19.8704,201.1936 Z" id="Fill-7" fill="#FFFFFF"></path>
                <path d="M218.8782,20.8703 C218.8782,17.4923 216.3252,14.6383 213.3022,14.6383 L202.8302,14.6383 C199.8072,14.6383 197.2542,17.4923 197.2542,20.8703 L197.2542,113.4333 L218.8782,113.4333 L218.8782,20.8703 Z" id="Fill-9" fill="#FFFFFF"></path>
                <path d="M451.9221,20.8703 C451.9221,17.4923 449.3641,14.6383 446.3411,14.6383 L435.8731,14.6383 C432.8511,14.6383 430.2931,17.4923 430.2931,20.8703 L430.2931,113.4333 L451.9221,113.4333 L451.9221,20.8703 Z" id="Fill-11" fill="#FFFFFF"></path>
                <path d="M335.3997,20.8703 C335.3997,17.4923 332.8427,14.6383 329.8197,14.6383 L319.3517,14.6383 C316.3287,14.6383 313.7717,17.4923 313.7717,20.8703 L313.7717,113.4333 L335.3997,113.4333 L335.3997,20.8703 Z" id="Fill-13" fill="#FFFFFF"></path>
                <g id="Group-17" transform="translate(0.000000, 0.425000)">
                    <mask id="mask-2" fill="white">
                        <use xlink:href="#path-1"></use>
                    </mask>
                    <g id="Clip-16"></g>
                    <path d="M761.9641,216.8164 C761.9641,219.8384 759.1141,222.3964 755.7361,222.3964 L664.6691,222.3964 L664.6691,200.7684 L755.7361,200.7684 C759.1141,200.7684 761.9641,203.3254 761.9641,206.3484 L761.9641,216.8164 Z M755.7361,317.2904 C759.1141,317.2904 761.9641,319.8464 761.9641,322.8704 L761.9641,333.3374 C761.9641,336.3614 759.1141,338.9144 755.7361,338.9144 L664.6691,338.9144 L664.6691,317.2904 L755.7361,317.2904 Z M755.7361,433.8114 C759.1141,433.8114 761.9641,436.3644 761.9641,439.3874 L761.9641,449.8604 C761.9641,452.8824 759.1141,455.4354 755.7361,455.4354 L664.6691,455.4354 L664.6691,433.8114 L755.7361,433.8114 Z M755.7361,550.3344 C759.1141,550.3344 761.9641,552.8864 761.9641,555.9094 L761.9641,566.3814 C761.9641,569.4054 759.1141,571.9574 755.7361,571.9574 L664.6691,571.9574 L664.6691,550.3344 L755.7361,550.3344 Z M568.4431,767.1294 C568.4431,770.5074 565.8861,773.3624 562.8631,773.3624 L552.3961,773.3624 C549.3721,773.3624 546.8161,770.5074 546.8161,767.1294 L546.8161,673.7534 L568.4431,673.7534 L568.4431,767.1294 Z M451.9221,767.1294 C451.9221,770.5074 449.3641,773.3624 446.3411,773.3624 L435.8731,773.3624 C432.8511,773.3624 430.2931,770.5074 430.2931,767.1294 L430.2931,673.7534 L451.9221,673.7534 L451.9221,767.1294 Z M335.4001,767.1294 C335.4001,770.5074 332.8431,773.3624 329.8191,773.3624 L319.3521,773.3624 C316.3281,773.3624 313.7721,770.5074 313.7721,767.1294 L313.7721,673.7534 L335.4001,673.7534 L335.4001,767.1294 Z M218.8781,767.1294 C218.8781,770.5074 216.3251,773.3624 213.3021,773.3624 L202.8301,773.3624 C199.8071,773.3624 197.2541,770.5074 197.2541,767.1294 L197.2541,673.7534 L218.8781,673.7534 L218.8781,767.1294 Z M19.8701,571.9574 C16.4911,571.9574 13.6371,569.4054 13.6371,566.3814 L13.6371,555.9094 C13.6371,552.8864 16.4911,550.3344 19.8701,550.3344 L103.9231,550.3344 L103.9231,571.9574 L19.8701,571.9574 Z M19.8701,455.4354 C16.4911,455.4354 13.6371,452.8824 13.6371,449.8604 L13.6371,439.3874 C13.6371,436.3644 16.4911,433.8114 19.8701,433.8114 L103.9231,433.8114 L103.9231,455.4354 L19.8701,455.4354 Z M19.8701,338.9144 C16.4911,338.9144 13.6371,336.3614 13.6371,333.3374 L13.6371,322.8704 C13.6371,319.8464 16.4911,317.2904 19.8701,317.2904 L103.9231,317.2904 L103.9231,338.9144 L19.8701,338.9144 Z M19.8701,222.3964 C16.4911,222.3964 13.6371,219.8384 13.6371,216.8164 L13.6371,206.3484 C13.6371,203.3254 16.4911,200.7684 19.8701,200.7684 L103.9231,200.7684 L103.9231,222.3964 L19.8701,222.3964 Z M197.2541,20.4454 C197.2541,17.0674 199.8071,14.2124 202.8301,14.2124 L213.3021,14.2124 C216.3251,14.2124 218.8781,17.0674 218.8781,20.4454 L218.8781,113.0084 L197.2541,113.0084 L197.2541,20.4454 Z M313.7721,20.4454 C313.7721,17.0674 316.3281,14.2124 319.3521,14.2124 L329.8191,14.2124 C332.8431,14.2124 335.4001,17.0674 335.4001,20.4454 L335.4001,113.0084 L313.7721,113.0084 L313.7721,20.4454 Z M430.2931,20.4454 C430.2931,17.0674 432.8511,14.2124 435.8731,14.2124 L446.3411,14.2124 C449.3641,14.2124 451.9221,17.0674 451.9221,20.4454 L451.9221,113.0084 L430.2931,113.0084 L430.2931,20.4454 Z M546.8161,20.4454 C546.8161,17.0674 549.3721,14.2124 552.3961,14.2124 L562.8631,14.2124 C565.8861,14.2124 568.4431,17.0674 568.4431,20.4454 L568.4431,113.0084 L546.8161,113.0084 L546.8161,20.4454 Z M608.1121,660.1174 L160.4841,660.1174 C136.8181,660.1174 117.5611,640.8594 117.5611,617.1934 L117.5611,169.5644 C117.5611,145.8984 136.8181,126.6454 160.4841,126.6454 L608.1121,126.6454 C631.7781,126.6454 651.0311,145.8984 651.0311,169.5644 L651.0311,617.1934 C651.0311,640.8594 631.7781,660.1174 608.1121,660.1174 Z M755.7361,187.1304 L664.6691,187.1304 L664.6691,169.5644 C664.6691,138.3784 639.2991,113.0084 608.1121,113.0084 L582.0811,113.0084 L582.0811,20.4454 C582.0811,9.4894 573.4601,0.5754 562.8631,0.5754 L552.3961,0.5754 C541.7991,0.5754 533.1781,9.4894 533.1781,20.4454 L533.1781,113.0084 L465.5591,113.0084 L465.5591,20.4454 C465.5591,9.4894 456.9381,0.5754 446.3411,0.5754 L435.8731,0.5754 C425.2781,0.5754 416.6561,9.4894 416.6561,20.4454 L416.6561,113.0084 L349.0371,113.0084 L349.0371,20.4454 C349.0371,9.4894 340.4161,0.5754 329.8191,0.5754 L319.3521,0.5754 C308.7551,0.5754 300.1341,9.4894 300.1341,20.4454 L300.1341,113.0084 L232.5151,113.0084 L232.5151,20.4454 C232.5151,9.4894 223.8951,0.5754 213.3021,0.5754 L202.8301,0.5754 C192.2371,0.5754 183.6161,9.4894 183.6161,20.4454 L183.6161,113.0084 L160.4841,113.0084 C129.2981,113.0084 103.9231,138.3784 103.9231,169.5644 L103.9231,187.1304 L19.8701,187.1304 C8.9141,187.1304 0.0001,195.7524 0.0001,206.3484 L0.0001,216.8164 C0.0001,227.4134 8.9141,236.0344 19.8701,236.0344 L103.9231,236.0344 L103.9231,303.6524 L19.8701,303.6524 C8.9141,303.6524 0.0001,312.2734 0.0001,322.8704 L0.0001,333.3374 C0.0001,343.9304 8.9141,352.5504 19.8701,352.5504 L103.9231,352.5504 L103.9231,420.1744 L19.8701,420.1744 C8.9141,420.1744 0.0001,428.7954 0.0001,439.3874 L0.0001,449.8604 C0.0001,460.4524 8.9141,469.0734 19.8701,469.0734 L103.9231,469.0734 L103.9231,536.6964 L19.8701,536.6964 C8.9141,536.6964 0.0001,545.3174 0.0001,555.9094 L0.0001,566.3814 C0.0001,576.9734 8.9141,585.5944 19.8701,585.5944 L103.9231,585.5944 L103.9231,617.1934 C103.9231,648.3794 129.2981,673.7534 160.4841,673.7534 L183.6161,673.7534 L183.6161,767.1294 C183.6161,778.0864 192.2371,787.0004 202.8301,787.0004 L213.3021,787.0004 C223.8951,787.0004 232.5151,778.0864 232.5151,767.1294 L232.5151,673.7534 L300.1341,673.7534 L300.1341,767.1294 C300.1341,778.0864 308.7551,787.0004 319.3521,787.0004 L329.8191,787.0004 C340.4161,787.0004 349.0371,778.0864 349.0371,767.1294 L349.0371,673.7534 L416.6561,673.7534 L416.6561,767.1294 C416.6561,778.0864 425.2781,787.0004 435.8731,787.0004 L446.3411,787.0004 C456.9381,787.0004 465.5591,778.0864 465.5591,767.1294 L465.5591,673.7534 L533.1781,673.7534 L533.1781,767.1294 C533.1781,778.0864 541.7991,787.0004 552.3961,787.0004 L562.8631,787.0004 C573.4601,787.0004 582.0811,778.0864 582.0811,767.1294 L582.0811,673.7534 L608.1121,673.7534 C639.2991,673.7534 664.6691,648.3794 664.6691,617.1934 L664.6691,585.5944 L755.7361,585.5944 C766.6931,585.5944 775.6021,576.9734 775.6021,566.3814 L775.6021,555.9094 C775.6021,545.3174 766.6931,536.6964 755.7361,536.6964 L664.6691,536.6964 L664.6691,469.0734 L755.7361,469.0734 C766.6931,469.0734 775.6021,460.4524 775.6021,449.8604 L775.6021,439.3874 C775.6021,428.7954 766.6931,420.1744 755.7361,420.1744 L664.6691,420.1744 L664.6691,352.5504 L755.7361,352.5504 C766.6931,352.5504 775.6021,343.9304 775.6021,333.3374 L775.6021,322.8704 C775.6021,312.2734 766.6931,303.6524 755.7361,303.6524 L664.6691,303.6524 L664.6691,236.0344 L755.7361,236.0344 C766.6931,236.0344 775.6021,227.4134 775.6021,216.8164 L775.6021,206.3484 C775.6021,195.7524 766.6931,187.1304 755.7361,187.1304 Z" id="Fill-15" fill="#1A1861" mask="url(#mask-2)"></path>
                </g>
                <path d="M622.9084,617.6232 C622.9084,625.7822 616.2714,632.4192 608.1124,632.4192 L160.4794,632.4192 C152.3204,632.4192 145.6834,625.7822 145.6834,617.6232 L145.6834,169.9892 C145.6834,161.8302 152.3204,155.1932 160.4794,155.1932 L608.1124,155.1932 C616.2714,155.1932 622.9084,161.8302 622.9084,169.9892 L622.9084,617.6232 Z M651.0314,169.9892 C651.0314,146.3232 631.7784,127.0702 608.1124,127.0702 L160.4834,127.0702 C136.8184,127.0702 117.5604,146.3232 117.5604,169.9892 L117.5604,617.6182 C117.5604,641.2842 136.8184,660.5422 160.4834,660.5422 L608.1124,660.5422 C631.7784,660.5422 651.0314,641.2842 651.0314,617.6182 L651.0314,169.9892 Z" id="Fill-18" fill="#FFFFFF"></path>
                <path d="M609.2717,617.6232 C609.2717,618.2492 608.7387,618.7812 608.1127,618.7812 L160.4797,618.7812 C159.8537,618.7812 159.3207,618.2492 159.3207,617.6232 L159.3207,169.9892 C159.3207,169.3632 159.8537,168.8312 160.4797,168.8312 L608.1127,168.8312 C608.7387,168.8312 609.2717,169.3632 609.2717,169.9892 L609.2717,617.6232 Z M608.1127,155.1932 L160.4797,155.1932 C152.3207,155.1932 145.6837,161.8302 145.6837,169.9892 L145.6837,617.6232 C145.6837,625.7822 152.3207,632.4192 160.4797,632.4192 L608.1127,632.4192 C616.2717,632.4192 622.9087,625.7822 622.9087,617.6232 L622.9087,169.9892 C622.9087,161.8302 616.2717,155.1932 608.1127,155.1932 Z" id="Fill-20" fill="#1A1861"></path>
                <rect id="Rectangle" fill="#8B6DED" x="159" y="169" width="450" height="450"></rect>
            </g>
            <g id="Low-Clock" transform="translate(142.000000, 149.000000)">
                <circle id="Oval" fill="#FFDD45" cx="246.904412" cy="247.808824" r="124.808824"></circle>
                <path d="M246.904412,368.745102 C179.23361,368.745102 124.182692,313.632026 124.182692,245.884818 C124.182692,178.137611 179.23361,123.024535 246.904412,123.024535 C314.575213,123.024535 369.626131,178.137611 369.626131,245.884818 C369.626131,313.632026 314.575213,368.745102 246.904412,368.745102 Z M267.997207,389.145028 L226.450792,389.145028 L226.450792,377.406752 C233.118672,378.445945 239.950181,378.983459 246.904412,378.983459 C254.083632,378.983459 261.124791,378.394753 267.997207,377.289011 L267.997207,389.145028 Z M226.450792,102.778184 L267.997207,102.778184 L267.997207,114.480626 C261.124791,113.374884 254.083632,112.786178 246.904412,112.786178 C239.950181,112.786178 233.118672,113.328811 226.450792,114.362885 L226.450792,102.778184 Z M278.224017,116.548775 L278.224017,102.778184 L288.133796,102.778184 L288.133796,92.5398275 L278.224017,92.5398275 L278.224017,82.3014706 L267.997207,82.3014706 L267.997207,92.5398275 L226.450792,92.5398275 L226.450792,82.3014706 L216.223982,82.3014706 L216.223982,92.5398275 L206.319316,92.5398275 L206.319316,102.778184 L216.223982,102.778184 L216.223982,116.405438 C157.665268,130.309126 113.955882,183.06738 113.955882,245.884818 C113.955882,308.702257 157.665268,361.460511 216.223982,375.364199 L216.223982,389.145028 L206.319316,389.145028 L206.319316,399.383385 L216.223982,399.383385 L216.223982,409.698529 L226.450792,409.698529 L226.450792,399.383385 L267.997207,399.383385 L267.997207,409.698529 L278.224017,409.698529 L278.224017,399.383385 L288.133796,399.383385 L288.133796,389.145028 L278.224017,389.145028 L278.224017,375.225982 C336.460587,361.081692 379.852941,308.482133 379.852941,245.884818 C379.852941,183.292623 336.460587,130.687945 278.224017,116.548775 Z" id="Fill-1" fill="#1A1861"></path>
                <path d="M246.452206,133.852941 C184.862212,133.852941 134.757353,184.160654 134.757353,246 L144.989099,246 C144.989099,189.826307 190.50502,144.126111 246.452206,144.126111 C302.399392,144.126111 347.915313,189.826307 347.915313,246 L358.147059,246 C358.147059,184.160654 308.0422,133.852941 246.452206,133.852941" id="Fill-3" fill="#1A1861"></path>
                <path d="M246,238.68824 C250.261843,238.68824 253.731387,242.101397 253.731387,246.293975 C253.731387,250.486553 250.261843,253.899709 246,253.899709 C241.738157,253.899709 238.268613,250.486553 238.268613,246.293975 C238.268613,242.101397 241.738157,238.68824 246,238.68824 M227.911765,246.293975 C227.911765,256.100431 236.026355,264.088235 246,264.088235 C255.973645,264.088235 264.088235,256.100431 264.088235,246.293975 C264.088235,238.265417 258.619819,231.54099 251.178424,229.335174 L251.178424,174.551471 L240.821576,174.551471 L240.821576,229.335174 C233.380181,231.54099 227.911765,238.265417 227.911765,246.293975" id="Fill-5" fill="#1A1861"></path>
                <path d="M323.779412,195.097867 C321.785433,192.062876 319.584288,189.105573 317.238126,186.308824 L309.308824,192.96923 C311.396027,195.45523 313.348573,198.086246 315.119847,200.779412 L323.779412,195.097867 Z" id="Fill-7" fill="#1A1861"></path>
                <path d="M251.426471,153.864704 C247.827648,153.683513 244.156951,153.715488 240.573529,153.971287 L241.266598,164.602941 C244.454714,164.379117 247.719837,164.347142 250.928488,164.512346 L251.426471,153.864704 Z" id="Fill-9" fill="#1A1861"></path>
                <path d="M300.967923,171.838235 L294.838235,180.096858 C297.419698,182.014957 299.918882,184.102753 302.258654,186.308824 L309.308824,178.821554 C306.675938,176.342939 303.868211,173.992882 300.967923,171.838235" id="Fill-11" fill="#1A1861"></path>
                <path d="M218.867647,158.041471 L221.76692,167.316176 C224.661336,166.412512 227.643168,165.669175 230.625,165.110458 L228.8427,155.558824 C225.482069,156.185558 222.126294,157.021205 218.867647,158.041471" id="Fill-13" fill="#1A1861"></path>
                <path d="M320.161765,209.925246 C321.605305,212.816398 322.893626,215.821334 323.99051,218.867647 L333.727941,215.361026 C332.496534,211.937157 331.042645,208.549491 329.418016,205.301471 L320.161765,209.925246 Z" id="Fill-15" fill="#1A1861"></path>
                <path d="M277.654412,170.306341 C280.566152,171.547459 283.437381,172.976011 286.182012,174.551471 L291.220588,165.762331 C288.131612,163.989306 284.900846,162.383451 281.624506,160.985294 L277.654412,170.306341 Z" id="Fill-17" fill="#1A1861"></path>
                <path d="M338.25,234.939013 C337.856726,231.3669 337.24894,227.789685 336.441962,224.294118 L326.492647,226.585373 C327.20769,229.69311 327.74908,232.877394 328.096387,236.051471 L338.25,234.939013 Z" id="Fill-19" fill="#1A1861"></path>
                <path d="M272.227941,157.878836 C268.911513,156.910526 265.501733,156.128996 262.091953,155.558824 L260.470588,165.256674 C263.497136,165.762948 266.528598,166.456002 269.471621,167.316176 L272.227941,157.878836 Z" id="Fill-21" fill="#1A1861"></path>
                <path d="M327.397059,255.591446 L337.544533,256.852941 C337.984172,253.303391 338.22444,249.677232 338.25,246.071502 L328.025844,246 C328.005396,249.207363 327.790689,252.435156 327.397059,255.591446" id="Fill-23" fill="#1A1861"></path>
                <path d="M313.830882,291.618477 L322.57452,297.551471 C324.66137,294.476669 326.589725,291.243372 328.301471,287.946677 L318.91857,283.080882 C317.402302,286.007756 315.690556,288.876514 313.830882,291.618477" id="Fill-25" fill="#1A1861"></path>
                <path d="M321.970588,274.730798 L332.128941,278.558824 C333.474706,274.985638 334.619691,271.298588 335.536765,267.600693 L324.998559,264.992647 C324.184588,268.289304 323.164412,271.55885 321.970588,274.730798" id="Fill-27" fill="#1A1861"></path>
                <path d="M180.882353,180.769382 L188.056026,188.117647 C190.356532,185.868492 192.811088,183.737444 195.352941,181.780988 L189.083038,173.647059 C186.227946,175.849998 183.465286,178.242934 180.882353,180.769382" id="Fill-29" fill="#1A1861"></path>
                <path d="M208.142948,161.889706 C204.699872,163.431302 201.31051,165.198497 198.066176,167.142948 L203.58799,176.360294 C206.467067,174.63607 209.48043,173.062246 212.536765,171.692536 L208.142948,161.889706 Z" id="Fill-31" fill="#1A1861"></path>
                <path d="M153.75,237.833635 L164.062923,238.764706 C164.352844,235.536994 164.839498,232.30411 165.507353,229.148815 L155.375631,227.007353 C154.624942,230.560939 154.076162,234.20246 153.75,237.833635" id="Fill-33" fill="#1A1861"></path>
                <path d="M166.847488,267.705882 L156.463235,270.483591 C157.436087,274.131683 158.640058,277.763658 160.0429,281.272059 L170.029412,277.296229 C168.782442,274.174665 167.712842,270.951019 166.847488,267.705882" id="Fill-35" fill="#1A1861"></path>
                <path d="M171.838235,210.696683 L162.427417,206.205882 C160.847651,209.514071 159.450366,212.952502 158.272059,216.432612 L168.146901,219.772059 C169.194864,216.68268 170.435737,213.629769 171.838235,210.696683" id="Fill-37" fill="#1A1861"></path>
                <path d="M164.602941,290.812271 C166.365081,294.057765 168.342886,297.245397 170.483755,300.264706 L179.073529,294.199788 C177.169366,291.501347 175.412486,288.681923 173.850231,285.794118 L164.602941,290.812271 Z" id="Fill-39" fill="#1A1861"></path>
                <path d="M168.220588,196.143774 L177.000554,201.683824 C178.729548,198.947548 180.64546,196.273578 182.691176,193.739798 L174.617346,187.213235 C172.317213,190.058547 170.162461,193.064815 168.220588,196.143774" id="Fill-41" fill="#1A1861"></path>
                <path d="M163.812996,247.808824 L153.75,248.065192 C153.840567,251.604085 154.142457,255.168113 154.645607,258.661765 L164.602941,257.234143 C164.160169,254.127558 163.8935,250.955624 163.812996,247.808824" id="Fill-43" fill="#1A1861"></path>
                <mask id="mask-4" fill="white">
                    <use xlink:href="#path-3"></use>
                </mask>
                <g id="Clip-46"></g>
                <polygon id="Fill-45" fill="#1A1861" mask="url(#mask-4)" points="205.301471 328.301471 287.602941 328.301471 287.602941 317.448529 205.301471 317.448529"></polygon>
            </g>
        </g>
    </g>
</svg>