<svg xmlns="http://www.w3.org/2000/svg" viewBox="0 0 141.12 134.64"><defs><style>.cls-1{fill:#fff;}</style></defs><title>wise-logo</title><g id="Layer_2" data-name="Layer 2"><g id="Layer_1-2" data-name="Layer 1"><path class="cls-1" d="M105.53,34.81c-9.12,0-13.65-8.71-18-17.12S78.92,1.23,70.55,1.23,58,9.23,53.62,17.69s-8.92,17.12-18,17.12-13.65-8.71-18-17.12S9,1.23.62,1.23A.61.61,0,0,1,0,.62.62.62,0,0,1,.62,0c9.11,0,13.65,8.7,18,17.12s8.57,16.45,16.94,16.45,12.53-8,16.93-16.45S61.44,0,70.55,0s13.65,8.7,18,17.12,8.57,16.45,16.94,16.45,12.53-8,16.94-16.45S131.38,0,140.5,0a.62.62,0,0,1,.62.62.61.61,0,0,1-.62.61c-8.37,0-12.53,8-16.94,16.46s-8.91,17.12-18,17.12Z"/><path class="cls-1" d="M104.86,38.17c-9,0-13.4-8.54-17.7-16.8S78.76,5.24,70.55,5.24,58.27,13.07,54,21.37s-8.75,16.8-17.7,16.8-13.39-8.54-17.69-16.8S10.15,5.24,2,5.24A.62.62,0,0,1,2,4c9,0,13.4,8.54,17.7,16.8s8.4,16.13,16.6,16.13S48.54,29.1,52.86,20.8,61.6,4,70.55,4,84,12.54,88.25,20.8s8.41,16.13,16.61,16.13,12.29-7.83,16.61-16.13S130.22,4,139.17,4a.62.62,0,0,1,0,1.24c-8.21,0-12.29,7.83-16.61,16.13s-8.75,16.8-17.7,16.8Z"/><path class="cls-1" d="M104.19,41.53c-8.78,0-13.14-8.38-17.36-16.48S78.59,9.24,70.55,9.24s-12,7.68-16.26,15.81S45.7,41.53,36.92,41.53,23.78,33.15,19.56,25.05,11.32,9.24,3.29,9.24A.62.62,0,0,1,3.29,8c8.78,0,13.14,8.38,17.36,16.48s8.24,15.81,16.27,15.81,12-7.68,16.27-15.81S61.77,8,70.55,8,83.7,16.38,87.92,24.48s8.24,15.81,16.27,15.81,12-7.68,16.28-15.81S129.05,8,137.83,8a.62.62,0,0,1,0,1.24c-8,0-12,7.68-16.27,15.81S113,41.53,104.19,41.53Z"/><path class="cls-1" d="M103.53,44.89c-8.62,0-12.9-8.21-17-16.16S78.42,13.24,70.55,13.24,58.77,20.76,54.62,28.73s-8.42,16.16-17,16.16-12.9-8.21-17-16.16S12.49,13.24,4.62,13.24a.62.62,0,1,1,0-1.24c8.62,0,12.9,8.22,17,16.16s8.07,15.49,15.94,15.49,11.79-7.52,15.93-15.49S61.94,12,70.55,12s12.9,8.22,17,16.16,8.07,15.49,15.94,15.49,11.78-7.52,15.93-15.49S127.88,12,136.5,12a.62.62,0,0,1,0,1.24c-7.87,0-11.79,7.52-15.94,15.49s-8.42,16.16-17,16.16Z"/><path class="cls-1" d="M102.86,48.25c-8.45,0-12.65-8-16.7-15.84s-7.9-15.17-15.61-15.17S59,24.61,55,32.41,46.7,48.25,38.26,48.25s-12.65-8-16.7-15.84S13.66,17.24,6,17.24a.62.62,0,0,1-.62-.62A.61.61,0,0,1,6,16c8.44,0,12.64,8,16.69,15.83S30.56,47,38.26,47s11.53-7.37,15.6-15.18S62.11,16,70.55,16s12.65,8,16.7,15.83S95.16,47,102.86,47s11.54-7.37,15.6-15.18S126.71,16,135.16,16a.61.61,0,0,1,.62.61.62.62,0,0,1-.62.62c-7.7,0-11.54,7.37-15.6,15.17s-8.25,15.84-16.7,15.84Z"/><path class="cls-1" d="M102.19,51.61c-8.28,0-12.39-7.89-16.36-15.52S78.09,21.24,70.56,21.24s-11.3,7.22-15.27,14.85S47.21,51.61,38.92,51.61,26.53,43.72,22.56,36.09,14.82,21.24,7.29,21.24a.62.62,0,0,1-.62-.62A.61.61,0,0,1,7.29,20c8.28,0,12.39,7.89,16.36,15.51s7.74,14.86,15.27,14.86,11.29-7.22,15.27-14.86S62.27,20,70.56,20,83,27.9,86.92,35.52s7.74,14.86,15.27,14.86,11.29-7.22,15.27-14.86S125.54,20,133.83,20a.61.61,0,0,1,.61.61.61.61,0,0,1-.61.62c-7.54,0-11.29,7.22-15.27,14.85s-8.08,15.52-16.37,15.52Z"/><path class="cls-1" d="M101.52,55c-8.11,0-12.14-7.72-16-15.19S77.92,25.24,70.56,25.24,59.51,32.3,55.62,39.78,47.71,55,39.59,55s-12.14-7.72-16-15.19S16,25.24,8.62,25.24a.62.62,0,0,1,0-1.23c8.12,0,12.14,7.72,16,15.2s7.57,14.53,14.94,14.53,11-7.06,14.94-14.53S62.44,24,70.56,24s12.14,7.72,16,15.2,7.57,14.53,14.93,14.53,11-7.06,14.94-14.53,7.92-15.2,16-15.2a.62.62,0,1,1,0,1.23c-7.36,0-11,7.06-14.93,14.54S109.64,55,101.52,55Z"/><path class="cls-1" d="M100.86,58.33c-8,0-11.89-7.56-15.7-14.87s-7.4-14.22-14.6-14.22S59.76,36.15,56,43.46,48.21,58.33,40.26,58.33s-11.89-7.56-15.7-14.87S17.16,29.24,10,29.24a.61.61,0,0,1-.62-.61A.62.62,0,0,1,10,28c8,0,11.89,7.56,15.7,14.88s7.4,14.21,14.6,14.21,10.79-6.9,14.6-14.21S62.61,28,70.56,28s11.88,7.56,15.69,14.88S93.66,57.1,100.86,57.1s10.79-6.9,14.6-14.21S123.21,28,131.16,28a.61.61,0,0,1,.61.62.61.61,0,0,1-.61.61c-7.2,0-10.8,6.91-14.61,14.22s-7.74,14.87-15.69,14.87Z"/><path class="cls-1" d="M100.19,61.69c-7.78,0-11.64-7.4-15.36-14.55S77.59,33.25,70.56,33.25,60,40,56.29,47.14,48.71,61.69,40.92,61.69s-11.63-7.4-15.36-14.55S18.33,33.25,11.29,33.25a.62.62,0,0,1,0-1.24c7.79,0,11.64,7.4,15.37,14.56s7.23,13.89,14.26,13.89,10.55-6.75,14.27-13.89S62.77,32,70.56,32s11.63,7.4,15.36,14.56,7.24,13.89,14.27,13.89,10.55-6.75,14.27-13.89S122,32,129.82,32a.62.62,0,0,1,0,1.24c-7,0-10.54,6.74-14.27,13.89S108,61.69,100.19,61.69Z"/><path class="cls-1" d="M99.52,65.05c-7.61,0-11.38-7.23-15-14.23S77.42,37.25,70.56,37.25s-10.3,6.59-13.94,13.57-7.41,14.23-15,14.23-11.38-7.23-15-14.23S19.49,37.25,12.63,37.25a.62.62,0,1,1,0-1.24c7.61,0,11.38,7.24,15,14.24s7.07,13.57,13.93,13.57,10.3-6.59,13.94-13.57S62.94,36,70.56,36s11.38,7.24,15,14.24,7.06,13.57,13.93,13.57,10.3-6.59,13.94-13.57S120.87,36,128.49,36a.62.62,0,0,1,0,1.24c-6.87,0-10.3,6.59-13.94,13.57s-7.41,14.23-15,14.23Z"/><path class="cls-1" d="M98.85,68.42c-7.44,0-11.13-7.08-14.69-13.92s-6.9-13.25-13.6-13.25S60.5,47.69,57,54.5,49.71,68.42,42.26,68.42,31.13,61.34,27.56,54.5,20.66,41.25,14,41.25a.61.61,0,0,1-.61-.62A.61.61,0,0,1,14,40c7.45,0,11.14,7.07,14.7,13.91s6.9,13.25,13.6,13.25,10.05-6.44,13.6-13.25S63.11,40,70.56,40s11.13,7.07,14.69,13.91,6.9,13.25,13.6,13.25,10.06-6.44,13.61-13.25S119.71,40,127.15,40a.61.61,0,0,1,.62.61.62.62,0,0,1-.62.62c-6.7,0-10.05,6.44-13.6,13.25s-7.24,13.92-14.7,13.92Z"/><path class="cls-1" d="M98.19,71.78c-7.28,0-10.88-6.92-14.37-13.6S77.09,45.25,70.56,45.25s-9.81,6.28-13.27,12.93-7.08,13.6-14.36,13.6-10.88-6.92-14.37-13.6S21.83,45.25,15.3,45.25a.62.62,0,0,1-.62-.62A.61.61,0,0,1,15.3,44c7.28,0,10.88,6.91,14.36,13.59s6.73,12.93,13.27,12.93,9.8-6.28,13.26-12.93S63.27,44,70.56,44s10.88,6.91,14.36,13.59,6.73,12.93,13.27,12.93,9.8-6.28,13.27-12.93S118.54,44,125.82,44a.61.61,0,0,1,.62.61.62.62,0,0,1-.62.62c-6.53,0-9.8,6.28-13.27,12.93s-7.08,13.6-14.36,13.6Z"/><path class="cls-1" d="M97.52,75.14c-7.12,0-10.63-6.75-14-13.28S76.92,49.25,70.56,49.25,61,55.38,57.62,61.86s-6.91,13.28-14,13.28S33,68.39,29.57,61.86,23,49.25,16.63,49.25a.61.61,0,0,1-.61-.62.61.61,0,0,1,.61-.61c7.12,0,10.63,6.75,14,13.27S37.23,73.9,43.59,73.9s9.56-6.12,12.94-12.61S63.44,48,70.56,48s10.63,6.75,14,13.27S91.15,73.9,97.52,73.9s9.56-6.12,12.94-12.61S117.37,48,124.49,48a.61.61,0,0,1,.61.61.61.61,0,0,1-.61.62c-6.37,0-9.56,6.13-12.94,12.61s-6.91,13.28-14,13.28Z"/><path class="cls-1" d="M96.85,78.5c-6.95,0-10.38-6.59-13.69-13s-6.4-12.29-12.6-12.29-9.31,6-12.6,12.29-6.75,13-13.7,13-10.38-6.59-13.69-13S24.17,53.25,18,53.25A.62.62,0,1,1,18,52C24.91,52,28.34,58.6,31.66,65s6.4,12.29,12.6,12.29,9.31-6,12.6-12.29S63.61,52,70.56,52,80.93,58.6,84.25,65s6.4,12.29,12.6,12.29,9.31-6,12.61-12.29S116.2,52,123.15,52a.62.62,0,1,1,0,1.23c-6.2,0-9.31,6-12.6,12.29s-6.75,13-13.7,13Z"/><path class="cls-1" d="M96.19,81.86c-6.79,0-10.13-6.42-13.37-12.64s-6.23-12-12.26-12-9.07,5.82-12.27,12S51.71,81.86,44.93,81.86,34.8,75.44,31.57,69.22s-6.24-12-12.27-12a.61.61,0,0,1-.62-.61A.62.62,0,0,1,19.3,56c6.78,0,10.13,6.42,13.36,12.63s6.24,12,12.27,12,9.06-5.81,12.26-12S63.77,56,70.56,56s10.12,6.42,13.36,12.63,6.23,12,12.27,12,9.06-5.81,12.27-12S115,56,121.82,56a.62.62,0,0,1,.62.62.61.61,0,0,1-.62.61c-6,0-9.06,5.82-12.27,12S103,81.86,96.19,81.86Z"/><path class="cls-1" d="M95.52,85.22c-6.62,0-9.88-6.26-13-12.31S76.42,61.26,70.56,61.26s-8.82,5.66-11.94,11.65-6.41,12.31-13,12.31-9.88-6.26-13-12.31S26.5,61.26,20.64,61.26a.62.62,0,0,1,0-1.24c6.61,0,9.87,6.26,13,12.32S39.73,84,45.6,84s8.81-5.66,11.93-11.65S63.94,60,70.56,60s9.87,6.26,13,12.32S89.65,84,95.52,84s8.81-5.66,11.93-11.65S113.87,60,120.48,60a.62.62,0,0,1,0,1.24c-5.86,0-8.81,5.66-11.93,11.65s-6.42,12.31-13,12.31Z"/><path class="cls-1" d="M94.85,88.58c-6.45,0-9.62-6.1-12.69-12s-5.9-11.33-11.6-11.33S62,70.76,59,76.59s-6.25,12-12.7,12-9.62-6.1-12.69-12S27.67,65.26,22,65.26A.62.62,0,0,1,22,64c6.45,0,9.62,6.1,12.69,12s5.9,11.33,11.6,11.33S54.83,81.84,57.86,76s6.25-12,12.7-12,9.62,6.1,12.69,12,5.9,11.33,11.6,11.33,8.57-5.51,11.6-11.33,6.25-12,12.7-12a.62.62,0,1,1,0,1.24c-5.7,0-8.57,5.5-11.6,11.33s-6.25,12-12.7,12Z"/><path class="cls-1" d="M94.18,91.94c-6.28,0-9.37-5.93-12.36-11.67s-5.73-11-11.26-11-8.32,5.35-11.27,11S53.21,91.94,46.93,91.94,37.56,86,34.57,80.27s-5.73-11-11.26-11a.62.62,0,0,1-.62-.62.61.61,0,0,1,.62-.61C29.59,68,32.68,74,35.66,79.7s5.74,11,11.27,11,8.32-5.35,11.27-11S64.27,68,70.56,68,79.93,74,82.92,79.7s5.73,11,11.26,11,8.32-5.35,11.27-11S111.53,68,117.81,68a.61.61,0,0,1,.62.61.62.62,0,0,1-.62.62c-5.53,0-8.31,5.35-11.26,11s-6.08,11.67-12.37,11.67Z"/><path class="cls-1" d="M93.52,95.3c-6.12,0-9.12-5.77-12-11.35S75.92,73.26,70.56,73.26,62.49,78.45,59.62,84,53.71,95.3,47.6,95.3s-9.12-5.77-12-11.35S30,73.26,24.64,73.26a.62.62,0,0,1-.62-.62.61.61,0,0,1,.62-.61c6.11,0,9.12,5.77,12,11.35S42.23,94.07,47.6,94.07s8.07-5.19,10.93-10.69S64.44,72,70.56,72s9.12,5.77,12,11.35,5.57,10.69,10.94,10.69,8.07-5.19,10.93-10.69S110.36,72,116.48,72a.61.61,0,0,1,.62.61.62.62,0,0,1-.62.62c-5.37,0-8.07,5.19-10.93,10.69s-5.92,11.35-12,11.35Z"/><path class="cls-1" d="M92.85,98.66c-5.95,0-8.87-5.61-11.69-11s-5.4-10.37-10.6-10.37-7.83,5-10.6,10.37-5.75,11-11.7,11-8.86-5.61-11.69-11S31.17,77.26,26,77.26A.62.62,0,0,1,26,76c6,0,8.87,5.61,11.7,11s5.4,10.37,10.59,10.37,7.83-5,10.6-10.37,5.75-11,11.7-11,8.87,5.61,11.69,11,5.4,10.37,10.6,10.37,7.82-5,10.6-10.37,5.75-11,11.7-11a.62.62,0,0,1,0,1.23c-5.21,0-7.83,5-10.61,10.37s-5.74,11-11.69,11Z"/><path class="cls-1" d="M64.74,105.62l-9.07,28a.76.76,0,0,1-.75.5H52.13a.74.74,0,0,1-.76-.5l-7.81-22.89-7.85,22.89a.71.71,0,0,1-.71.5H32.2a.74.74,0,0,1-.75-.5l-9-28c-.16-.42,0-.71.5-.71h2.68a.67.67,0,0,1,.71.5l7.26,23.84,8-23.84a.64.64,0,0,1,.25-.38.59.59,0,0,1,.42-.12h2.51a.85.85,0,0,1,.37.08.77.77,0,0,1,.29.42l8,23.84,7.31-23.84a.64.64,0,0,1,.71-.5h2.72C64.7,104.91,64.86,105.2,64.74,105.62Z"/><path class="cls-1" d="M70.13,104.91h2.63a.59.59,0,0,1,.63.62v28a.59.59,0,0,1-.63.63H70.13a.59.59,0,0,1-.63-.63v-28A.59.59,0,0,1,70.13,104.91Z"/><path class="cls-1" d="M97.65,126.41c0,4.81-4.47,8.23-9.65,8.23-4.13,0-7.68-1.88-9.35-4.47a.56.56,0,0,1,.12-.83l1.55-1.59a.58.58,0,0,1,.88,0C83,129.55,85.08,131,88,131c3.47,0,5.81-2.09,5.81-4.76,0-6.56-14.53-4.6-14.53-14,0-4.51,3.8-7.64,8.6-7.64a11.25,11.25,0,0,1,8.44,3.93c.29.29.29.54,0,.88l-1.38,1.5c-.29.33-.59.37-.88.08-1.92-1.79-3.72-2.8-6.14-2.8-2.8,0-4.89,1.55-4.89,4.1C83,118.69,97.65,116.47,97.65,126.41Z"/><path class="cls-1" d="M118.7,131.22v2.29a.59.59,0,0,1-.62.63H103.42a.59.59,0,0,1-.63-.63v-28a.59.59,0,0,1,.63-.62H118a.59.59,0,0,1,.63.62v2.3a.59.59,0,0,1-.63.63H106.67V117h10.7a.59.59,0,0,1,.62.62v2.3a.59.59,0,0,1-.62.63h-10.7v10.06h11.41A.59.59,0,0,1,118.7,131.22Z"/></g></g></svg>